<?xml version="1.0" encoding="UTF-8"?>
<svg id="Calque_1" data-name="Calque 1" xmlns="http://www.w3.org/2000/svg" viewBox="0 0 1195.17 449.22">
  <defs>
    <style>
      .cls-1 {
        fill: #a6a8ab;
      }

      .cls-2 {
        fill: #a03f37;
      }

      .cls-3 {
        fill: #929497;
      }
    </style>
  </defs>
  <g>
    <path class="cls-2" d="M414.31,130.69C351.09,87.45,287.69,44.49,224.17,1.71c-1.43-.77-3.11-2.51-4.81-1.28-35.95,24.1-72.14,47.89-108.2,71.85C74.22,97.01,37.52,122.13.29,146.44c-.58,27.68-.1,55.36-.25,83.05v129.18l30.12-12.53s.12-105.9.09-155.51c8.81,5.2,16.81,11.59,25.34,17.2,41.46,29.02,83.11,57.8,124.56,86.83,12.64,8.27,24.67,17.46,37.5,25.43,3.26-1.31,5.93-3.67,8.85-5.58,75.76-51.87,150.46-105.29,225.81-157.77-12.33-9.14-25.55-17.05-38.01-26.03ZM396.97,159.87c-59.62,40.75-119.27,81.44-179.11,121.84-1.74,1.44-3.32-1.02-4.85-1.69-58.63-39.87-117.18-79.85-175.8-119.72,60.66-40.91,121.67-81.3,182.32-122.22.36-.13,1.09-.41,1.45-.54,24.22,16.53,48.7,32.67,72.96,49.15,35.41,23.51,70.38,47.69,106.05,70.78-.98.82-1.97,1.63-3.01,2.39Z"/>
    <g>
      <path class="cls-1" d="M800.36,83.18c5.46-8.67,15.56-13.35,25.44-14.67,13.51-1.91,28.88,1.58,38.01,12.22-3.79,5.06-7.93,9.87-11.89,14.78-5.09-5.47-12.4-9.27-20.03-8.41-6.93-.36-16.07,4.59-14.76,12.6,1.85,4.94,7.33,6.95,12,8.3,9.01,2.38,18.69,3.88,26.26,9.76,11.96,8.85,13.11,27.47,4.99,39.23-6.33,9.12-17.55,14.15-28.5,14.28-11.33.6-23.24-1.24-32.66-7.97-2.75-1.87-5.19-4.13-7.7-6.28,4.38-5.58,8.55-11.32,13.08-16.77,6.29,7.21,15.62,11.8,25.27,11.57,5.56-.28,11.68-2.72,14.05-8.13,2.04-3.88-.46-8.54-3.87-10.67-6.62-4.1-14.68-4.23-21.9-6.71-7.15-2.15-13.93-6.24-18.19-12.48-6.04-9.09-5.32-21.6.4-30.66Z"/>
      <path class="cls-1" d="M598.78,71.14c7.35-.5,14.75-.14,22.11-.17-.1,25.91-.04,51.82-.07,77.73,14.49.07,29,.16,43.5-.02v20.14c-21.86-.06-43.71.13-65.55-.11.19-32.52.25-65.06.02-97.57Z"/>
      <path class="cls-1" d="M666.64,71.08c7.74-.41,15.51-.11,23.27-.12-4.03,11.27-8.15,22.51-12.23,33.77-.59,1.18-.66,2.77-1.84,3.59-5.87.07-11.74,0-17.61.03,2.98-12.37,6.06-24.76,8.41-37.27Z"/>
      <path class="cls-1" d="M721,74.82c.74-1.32.67-4.13,2.74-3.93,8.71.16,17.45-.42,26.13.37,4.63,13.6,10.08,26.93,14.97,40.44,7.14,19.01,14.06,38.1,21.3,57.07-7.66.03-15.32.13-22.97-.03l-.64-.54c-2.17-5.74-4.25-11.51-6.2-17.32-13.68-.25-27.35,0-41.02-.12-2.38,5.94-4.24,12.07-6.55,18.06-7.79-.02-15.57,0-23.36,0,11.81-31.35,23.75-62.66,35.58-94ZM734.8,96.02c-3.38,7.56-5.68,15.56-8.65,23.3-1.17,4.03-3.5,7.82-3.53,12.11,7.45.38,14.91.14,22.36.24,1.49.13,2.9-.34,4.19-1.04-2.65-8.17-5.74-16.18-8.57-24.28-1.37-3.56-2.42-7.29-4.39-10.58-.35.06-1.06.19-1.41.25Z"/>
      <path class="cls-1" d="M914.32,70.94c10.38-.07,20.76-.06,31.14-.14,7.27.02,14.66-.04,21.7,2.05,14.31,3.6,27.63,13.63,32.49,27.93,3.95,12.39,3.83,26.07-.05,38.47-5.32,15.47-20.53,25.65-36.15,28.53-6.26,1.37-12.69,1-19.04,1.04-10.03,0-20.04-.01-30.06,0-.21-32.62-.14-65.26-.02-97.88ZM937.17,91.45c-.3.3-.9.89-1.2,1.19-.15,18.68-.02,37.37-.06,56.05,6.03.13,12.06-.05,18.1-.04,7.99-.58,16.3-4.03,20.76-10.98,4.29-6.78,4.36-15.22,3.73-22.96-.43-8.61-5.58-17.01-13.54-20.61-8.65-4.28-18.53-2.33-27.8-2.64Z"/>
      <path class="cls-1" d="M1017.6,70.95c7.41-.03,14.81-.17,22.22.06-.39,20.93-.25,41.89-.02,62.82-.49,11.77,12.95,20.67,23.83,17.26,7.47-1.75,14.14-8.22,14.43-16.16.04-21.34.01-42.67.02-64,7.43-.04,14.85-.05,22.28,0-.01,22.05.01,44.09-.01,66.13-.52,8.93-4.58,17.63-11.24,23.65-7.77,7.24-18.58,10.61-29.07,10.45-10.12.18-20.6-2.41-28.65-8.76-8.44-6.46-13.43-16.92-13.78-27.49-.02-21.31-.01-42.64-.01-63.96Z"/>
      <path class="cls-2" d="M922.35,252.24c20.48-32.99,68.55-42.8,101.5-23.38,4.98,2.81,9.5,6.33,14.06,9.76-6.38,8.22-12.56,16.58-18.6,25.05-5.08-3.2-9.01-8.04-14.69-10.32-8.05-4.33-17.46-4.59-26.32-3.49-14.19,2.71-26.8,13.31-31.19,27.18-6.54,18.75-.22,42.26,17.07,53.03,12.83,8.51,30.23,7.87,43.37.38,4.52-2.35,8.04-6.13,12.27-8.93,1.64.71,2.34,2.55,3.44,3.89,4.72,7.09,9.96,13.85,14.44,21.12-5.84,4.03-11.36,8.58-17.82,11.63-20.09,9.82-44.37,10.77-65.09,2.27-19.1-8.08-34.59-24.79-39.99-44.94-5.73-20.89-3.84-44.53,7.54-63.24Z"/>
      <path class="cls-2" d="M1110.84,219.84c17.99-3,37.18,1.2,52.22,11.57,16.94,11.53,28.93,30.42,31.45,50.86,1.99,15.69-.43,32.15-8.15,46.08-9.9,17.94-27.63,31.58-47.71,35.99-24.12,5.95-50.97-1.67-68.69-19-24.5-22.58-28.71-62.61-11.67-90.76,11.41-18.43,31.03-31.66,52.55-34.73ZM1116.4,248.93c-9.33,1.24-18.26,5.81-24.45,12.95-15.41,16.9-14.94,45.58.74,62.16,8.74,9.24,22.08,14.38,34.73,12.13,8.3-1.27,16.09-5.38,22.1-11.23,17.65-17.37,17.01-49.51-1.32-66.17-8.28-8.08-20.48-11.45-31.8-9.85Z"/>
      <path class="cls-2" d="M520.59,222.83c20.32-.25,40.66-.15,61-.06,9.67-.14,19.45,2.25,27.63,7.5,12,7.78,19.67,21.66,20.06,35.94.97,13.55-2.55,28.13-12.42,37.93-6.72,7.33-16.27,11.43-25.94,13.09-12.7,2.45-25.66.75-38.48,1.66-.03,14.79.04,29.59-.04,44.37-10.56-.4-21.13-.32-31.69-.07-.08-46.79.29-93.59-.11-140.37ZM552.61,251.29c-.4,13.3-.07,26.62-.18,39.94,10.11.14,20.32.92,30.37-.46,11.95-1.92,18.64-16.36,14.06-27.11-2.14-6.72-8.51-11.55-15.48-12.16-9.56-.95-19.18-.36-28.77-.21Z"/>
      <path class="cls-2" d="M651.3,222.82c10.63-.28,21.27-.04,31.9-.03-.04,37.22,0,74.45-.01,111.68,20.91.38,41.84.31,62.76.01.17,9.57.36,19.17-.1,28.75-31.48-.33-62.99-.22-94.48-.04-.08-46.79.11-93.59-.07-140.38Z"/>
      <path class="cls-2" d="M815.52,224.58c.45-2.59,3.51-1.7,5.31-1.89,11.49.21,22.99-.38,34.47.31,9.96,27.92,20.88,55.5,30.96,83.39,6.82,18.99,14.41,37.7,20.91,56.8-11.04-.33-22.1-.15-33.15-.06-4.08-8.75-6.33-18.22-10.4-26.99-18.32.22-36.65-.1-54.96.13-2.55-.32-2.87,2.74-3.71,4.41-2.59,7.29-5.42,14.49-7.87,21.84-11.27.68-22.56.29-33.84.21,17.22-46.13,34.89-92.09,52.29-138.14ZM835.01,257.42c-4.76,11.1-8.43,22.62-12.64,33.93-1.91,5.88-4.67,11.55-5.74,17.68,12.21.75,24.48.36,36.71.26.43-2.62-.21-5.17-1.08-7.59-3.92-11.3-8.14-22.49-12.16-33.75-1.34-3.66-2.59-7.47-5.08-10.53Z"/>
    </g>
    <polygon class="cls-1" points="452.16 282 420.68 263.35 207.97 412.07 53.53 304.33 53.63 338.9 209.14 449.22 452.16 282"/>
    <g>
      <polygon class="cls-1" points="452.16 220.29 420.68 201.64 207.97 350.36 53.53 242.62 53.63 277.19 209.14 387.51 452.16 220.29"/>
      <g>
        <polygon class="cls-3" points="452.16 220.29 420.68 201.64 207.97 350.36 53.53 242.62 53.63 277.19 209.14 387.51 452.16 220.29"/>
        <polygon class="cls-3" points="452.16 220.29 420.68 201.64 207.97 350.36 53.53 242.62 53.63 277.19 209.14 387.51 452.16 220.29"/>
      </g>
    </g>
  </g>
  <path class="cls-1" d="M240.19,114.63c5.32-.77,10.64-1.92,16.1-2.48,1.68,14.6,2.54,29.49,3.98,44.54.65,6.67.28,13.68-3.58,19.93-4.01,6.57-11.31,12.34-20.61,14.24-7.75,1.75-16.39-.02-22.25-3.99-6.77-4.25-10.38-11.08-9.66-17.75-6.14,5.5-9.25,12.67-9.61,19.85-.45,3.53.13,7.07-.13,10.61-11.85-7.88-23.19-15.68-34.24-23.2,8.8-.91,18.02-2.34,25.99-6.38,3.42-1.75,6.37-4.04,9.08-6.48-8.04,1.59-16.85.56-22.89-3.49-3.77-2.31-5.85-5.97-6.66-9.68-.89-5.2,1.13-10.74,5.07-15.19,5.7-6.79,15.36-11.13,25.29-12.89,14.29-2.5,28.98-5.09,44.13-7.64Z"/>
</svg>